PathFileType	4	(X/Y/Z)	/Users/itak/Documents/Research/Walk-IL/dataset/trc/00478_00167.trc
DataRate	CameraRate	NumFrames	NumMarkers	Units	OrigDataRate	OrigDataStartFrame	OrigNumFrames
100.000000	100.000000	4	53	mm	100.000000	271	543
Frame#	Time	RPSI			LPSI			L3			STRN			T10			C7			CLAV			RBAK			LBAK			LSHO			LUPA			LAEL			LAOL			LWTS			LWPS			LFRA			LIFD			LHPS			LHTS			RSHO			RUPA			RAEL			RAOL			RWTS			RWPS			RFRA			RIFD			RHTS			RHPS			RBHD			LFHD			RFHD			LBHD			LHIP			RHIP			RASI			LASI			LKNE			LTHI			LANK			LTIP			LTOE			LMT1			LMT5			LHEE			RKNE			RTHI			RANK			RTIP			RTOE			RMT1			RMT5			RHEE			
		X1	Y1	Z1	X2	Y2	Z2	X3	Y3	Z3	X4	Y4	Z4	X5	Y5	Z5	X6	Y6	Z6	X7	Y7	Z7	X8	Y8	Z8	X9	Y9	Z9	X10	Y10	Z10	X11	Y11	Z11	X12	Y12	Z12	X13	Y13	Z13	X14	Y14	Z14	X15	Y15	Z15	X16	Y16	Z16	X17	Y17	Z17	X18	Y18	Z18	X19	Y19	Z19	X20	Y20	Z20	X21	Y21	Z21	X22	Y22	Z22	X23	Y23	Z23	X24	Y24	Z24	X25	Y25	Z25	X26	Y26	Z26	X27	Y27	Z27	X28	Y28	Z28	X29	Y29	Z29	X30	Y30	Z30	X31	Y31	Z31	X32	Y32	Z32	X33	Y33	Z33	X34	Y34	Z34	X35	Y35	Z35	X36	Y36	Z36	X37	Y37	Z37	X38	Y38	Z38	X39	Y39	Z39	X40	Y40	Z40	X41	Y41	Z41	X42	Y42	Z42	X43	Y43	Z43	X44	Y44	Z44	X45	Y45	Z45	X46	Y46	Z46	X47	Y47	Z47	X48	Y48	Z48	X49	Y49	Z49	X50	Y50	Z50	X51	Y51	Z51	X52	Y52	Z52	X53	Y53	Z53	

272	2.71	248.7064514160156	1009.313720703125	-32.04791641235352	112.1009216308594	967.4296875	-36.26209259033203	182.1311492919922	1085.794311523438	-62.63906097412109	131.5014343261719	1240.853881835938	-358.8940734863281	159.3361053466797	1206.310180664062	-58.92552947998047	133.1181030273438	1462.142456054688	-160.5149536132812	113.9970245361328	1356.2919921875	-334.623779296875	247.6119995117188	1362.747680664062	-96.85257720947266	42.65339279174805	1407.238891601562	-113.321159362793	-46.08203887939453	1411.134155273438	-209.9897918701172	-127.0655975341797	1280.887573242188	-190.7567443847656	-118.3150482177734	1060.466186523438	-222.6231231689453	-62.21816253662109	1051.365844726562	-136.1671600341797	-4.129337787628174	906.3441772460938	-331.3168334960938	-54.98340225219727	863.376220703125	-299.4234313964844	-97.75045013427734	980.65380859375	-260.3958129882812	43.70361709594727	759.0115356445312	-371.3069458007812	-27.27975082397461	794.17236328125	-321.494384765625	18.22725486755371	828.6718139648438	-364.208740234375	286.5948181152344	1443.150390625	-241.364501953125	370.9908447265625	1397.166381835938	-227.5224761962891	484.6817626953125	1128.319702148438	-228.9882354736328	457.9062805175781	1099.885498046875	-173.5095520019531	434.8667907714844	942.7529296875	-358.6317138671875	506.9509887695312	921.6636962890625	-312.9664001464844	499.5433349609375	1072.217529296875	-244.7402648925781	451.2939147949219	794.61572265625	-401.6717529296875	449.5036010742188	855.5863037109375	-400.4636840820312	505.6652526855469	840.78271484375	-348.8013000488281	163.2648773193359	1667.398193359375	-289.5339050292969	-31.37371253967285	1629.273559570312	-346.5729675292969	82.53286743164062	1661.866821289062	-400.7972412109375	14.62528610229492	1629.06640625	-200.4779815673828	36.26946258544922	825.38525390625	-170.3980712890625	421.0225830078125	942.2049560546875	-130.3732452392578	352.0398559570312	946.3690185546875	-241.1634368896484	107.1981430053711	877.7615356445312	-265.7012634277344	185.4568481445312	430.4716186523438	-224.5566864013672	118.102409362793	570.9198608398438	-233.0423278808594	271.5791320800781	42.55248260498047	-86.49892425537109	212.2125549316406	279.58203125	-197.9988403320312	430.6577453613281	48.28055953979492	-270.5304260253906	418.5257568359375	62.86916351318359	-191.2183685302734	321.6179809570312	39.17508316040039	-238.4719085693359	312.9546203613281	70.44123840332031	-25.75473976135254	559.2759399414062	587.8273315429688	-102.8363876342773	480.2177429199219	821.8466186523438	-160.9236297607422	723.6652221679688	350.9545288085938	229.9933776855469	626.682373046875	491.0318298339844	-15.49081230163574	708.3907470703125	159.5638732910156	125.5544891357422	661.0369262695312	209.5413208007812	155.0962219238281	761.070068359375	247.700927734375	154.7312774658203	674.7488403320312	387.749755859375	278.9202270507812	
273	2.72	258.2034912109375	1011.792236328125	-36.45497512817383	121.5252838134766	970.71533203125	-33.00188827514648	190.1169891357422	1088.175903320312	-63.93691253662109	127.5847244262695	1241.001098632812	-358.8616943359375	167.8672790527344	1208.65771484375	-60.35523986816406	138.5874481201172	1463.867065429688	-162.2993927001953	112.1197052001953	1356.779663085938	-334.91748046875	255.0609588623047	1364.199584960938	-102.9193496704102	49.84987640380859	1409.830078125	-111.1947937011719	-42.59383392333984	1413.613525390625	-204.3770751953125	-123.4083251953125	1283.856323242188	-181.7375335693359	-115.767333984375	1063.25732421875	-214.3359832763672	-57.09620666503906	1053.92431640625	-129.6680908203125	-4.541638851165771	910.4284057617188	-327.7252807617188	-53.93832397460938	866.983154296875	-294.2002258300781	-96.09501647949219	983.781494140625	-253.2755889892578	42.28556442260742	763.3485107421875	-370.2849731445312	-27.02924728393555	798.0560913085938	-317.8598022460938	17.00573348999023	832.8966674804688	-361.7666015625	288.4545288085938	1443.752685546875	-249.2396697998047	373.2666625976562	1398.088256835938	-238.4916687011719	488.0763854980469	1130.017578125	-240.482177734375	463.6118469238281	1102.652465820312	-183.4141998291016	436.5426330566406	940.2232055664062	-363.3342895507812	510.4867858886719	921.5982055664062	-319.6383361816406	502.9759826660156	1073.830932617188	-255.3504486083984	453.8695678710938	791.02587890625	-402.287353515625	450.9762268066406	851.8124389648438	-402.7213745117188	509.3748779296875	839.736083984375	-352.9144592285156	164.1953277587891	1668.333740234375	-293.090087890625	-31.93896484375	1629.848754882812	-344.4295654296875	80.41026306152344	1662.1259765625	-402.0480651855469	18.09872817993164	1630.5546875	-199.7372589111328	38.4024543762207	827.2059326171875	-160.6319580078125	424.9045715332031	942.8178100585938	-143.1532440185547	350.2967529296875	946.1920776367188	-250.0873718261719	104.3133926391602	878.0864868164062	-260.7088623046875	184.0353393554688	430.9714660644531	-215.0852508544922	116.2701721191406	571.4566650390625	-222.5462951660156	280.6850891113281	43.40287399291992	-82.08132934570312	212.8271484375	280.4589538574219	-189.64404296875	424.479736328125	50.17322158813477	-276.8575439453125	419.5437927246094	63.86903381347656	-196.9141693115234	320.0902404785156	38.90747833251953	-236.8595428466797	326.0367431640625	72.17359161376953	-24.61197280883789	561.8256225585938	587.0862426757812	-120.2746734619141	481.9446105957031	821.6921997070312	-175.7987060546875	740.8856201171875	351.179443359375	205.1532897949219	632.7886962890625	490.4947204589844	-35.61275863647461	720.4848022460938	161.1596221923828	99.28060913085938	674.5176391601562	210.3719177246094	131.9780883789062	774.3802490234375	248.9948425292969	126.8368530273438	694.5648193359375	387.4802551269531	256.8321838378906	
274	2.73	267.2608947753906	1013.976257324219	-41.19217300415039	130.9083709716797	973.78857421875	-30.15750312805176	197.7956237792969	1090.371215820312	-65.50505065917969	123.7961044311523	1241.105712890625	-358.5315856933594	176.1135559082031	1210.781616210938	-62.08338928222656	143.8891296386719	1465.433471679688	-164.1577758789062	110.3226165771484	1357.207397460938	-335.0068359375	262.0795288085938	1365.424926757812	-109.0453414916992	57.01791000366211	1412.276489257812	-109.3008346557617	-38.88901519775391	1416.021362304688	-198.9434814453125	-119.5490493774414	1286.888916015625	-172.9317474365234	-113.2895050048828	1066.075927734375	-205.9419708251953	-52.12945556640625	1056.535766601562	-123.1150665283203	-5.194421768188477	914.4102172851562	-323.8467712402344	-53.19440078735352	870.5256958007812	-288.7911376953125	-94.60597229003906	986.9008178710938	-245.9778137207031	40.43571090698242	767.48486328125	-368.7499389648438	-27.17355918884277	801.846435546875	-313.9033508300781	15.41297626495361	837.0266723632812	-358.9907836914062	290.0079040527344	1444.22265625	-256.8708801269531	375.0931701660156	1398.880737304688	-249.1399993896484	491.0702514648438	1131.575317382812	-251.8515319824219	468.9242858886719	1105.308349609375	-193.30859375	438.204345703125	937.6076049804688	-367.81298828125	513.8894653320312	921.5010375976562	-326.165771484375	506.07958984375	1075.319213867188	-265.8472290039062	456.6600341796875	787.388427734375	-402.3448791503906	452.4680786132812	847.8382568359375	-404.43505859375	513.0679321289062	838.6652221679688	-356.7062683105469	165.0266265869141	1669.09326171875	-296.6348571777344	-32.43924713134766	1630.23095703125	-342.1410217285156	78.23918914794922	1662.174072265625	-403.1860961914062	21.62425231933594	1631.894409179688	-198.9955902099609	41.09201431274414	828.8956298828125	-150.9334716796875	428.0236206054688	943.2399291992188	-155.8274078369141	348.0575561523438	945.906982421875	-258.6735229492188	101.6728897094727	878.3392333984375	-255.4635162353516	183.6321411132812	431.5145263671875	-205.2734222412109	115.3133087158203	571.9168701171875	-211.6639862060547	290.6195678710938	44.36775207519531	-78.02138519287109	214.4240264892578	281.3634338378906	-181.0385589599609	418.0442199707031	51.78731918334961	-282.70556640625	420.4287414550781	64.7103271484375	-202.717041015625	318.7661743164062	38.72247695922852	-234.8778839111328	339.8032836914062	74.0208740234375	-24.20082473754883	563.33984375	586.12255859375	-137.5044250488281	482.8150024414062	821.3308715820312	-190.3974151611328	756.5308227539062	350.5960998535156	179.5862274169922	637.712158203125	489.6085205078125	-55.78081893920898	730.6110229492188	162.0575408935547	72.45704650878906	686.3250732421875	210.5628204345703	108.2271728515625	785.830078125	249.5236511230469	98.37897491455078	713.0036010742188	386.4000549316406	233.9132995605469	
275	2.74	275.9117126464844	1015.847778320312	-46.24040985107422	140.2624206542969	976.6024780273438	-27.71737670898438	205.2019958496094	1092.35546875	-67.34280395507812	120.1299819946289	1241.123779296875	-357.9168701171875	184.0899658203125	1212.640991210938	-64.08049774169922	149.0328216552734	1466.799194335938	-166.0785369873047	108.599006652832	1357.52978515625	-334.8994445800781	268.6968688964844	1366.380981445312	-115.201171875	64.13824462890625	1414.537475585938	-107.6241302490234	-34.97614669799805	1418.30224609375	-193.6924896240234	-115.4910125732422	1289.93017578125	-164.3557891845703	-110.8772811889648	1068.874877929688	-197.4504547119141	-47.33017730712891	1059.134399414062	-116.5121078491211	-6.034891128540039	918.2303466796875	-319.6629638671875	-52.77746200561523	873.9571533203125	-283.2106323242188	-93.27831268310547	989.966064453125	-238.518798828125	38.21944046020508	771.4010620117188	-366.7210083007812	-27.66604423522949	805.4907836914062	-309.6338195800781	13.47617530822754	841.0142211914062	-355.8799438476562	291.2815246582031	1444.506958007812	-264.2496032714844	376.5076599121094	1399.488525390625	-259.4490051269531	493.6903991699219	1132.9375	-263.0332336425781	473.8445739746094	1107.785522460938	-203.1464385986328	439.8529968261719	934.90771484375	-372.0892028808594	517.1404418945312	921.3270263671875	-332.549560546875	508.8828430175781	1076.623168945312	-276.1766967773438	459.6447143554688	783.7701416015625	-401.9683837890625	453.99658203125	843.7376708984375	-405.6969604492188	516.7109985351562	837.5552978515625	-360.2273559570312	165.7698516845703	1669.629272460938	-300.1654663085938	-32.86830520629883	1630.413818359375	-339.6907043457031	76.03391265869141	1661.9873046875	-404.2010498046875	25.22006607055664	1633.060546875	-198.2444610595703	44.34062957763672	830.3960571289062	-141.3251495361328	430.3958129882812	943.426025390625	-168.4017639160156	345.3228454589844	945.464111328125	-266.9322814941406	99.25645446777344	878.480712890625	-249.9772491455078	184.3285980224609	432.0733642578125	-195.282470703125	115.3082504272461	572.2549438476562	-200.4812622070312	301.294921875	45.447265625	-74.40023040771484	217.0433044433594	282.2822570800781	-172.3187103271484	411.6089477539062	53.03662872314453	-287.9114379882812	421.2177429199219	65.32266998291016	-208.4789276123047	317.7661437988281	38.64404678344727	-232.5269622802734	354.1062316894531	75.95518493652344	-24.58305168151855	563.8650512695312	584.9210205078125	-154.4705657958984	482.8158264160156	820.7099609375	-204.7103729248047	770.6564331054688	349.1664428710938	153.3550720214844	641.5076904296875	488.3577880859375	-75.94770050048828	738.7603759765625	162.2266540527344	45.18733978271484	696.4569091796875	210.1048431396484	83.95410919189453	795.4387817382812	249.2337799072266	69.46134948730469	730.1332397460938	384.497314453125	210.2122650146484	
